<svg width="260" height="198" viewBox="0 0 260 198" fill="none" xmlns="http://www.w3.org/2000/svg" xmlns:xlink="http://www.w3.org/1999/xlink">
<path d="M231.614,38.633C128.36,-48.449 0.692,25.013 0.002,127.066C-0.957,268.222 362.346,148.887 231.614,38.633Z" transform="rotate(0 130 95.702)" fill="#D3E5D3"/>
<path d="M178.201,46L79.802,46C63.344,46 50,59.339 50,75.78L50,124.173C50,140.614 63.344,153.942 79.802,153.942L82.303,153.942L82.599,198L131.84,153.942L178.198,153.942C194.659,153.942 208,140.614 208,124.173L208,75.78C208,59.339 194.659,46 178.198,46L178.201,46ZM104.205,106.631C104.205,108.881 102.381,110.707 100.127,110.707L90.294,110.707C88.043,110.707 86.216,108.883 86.216,106.631L86.216,96.803C86.216,94.554 88.04,92.728 90.294,92.728L100.127,92.728C102.378,92.728 104.205,94.551 104.205,96.803L104.205,106.631ZM137.996,106.631C137.996,108.881 136.171,110.707 133.918,110.707L124.085,110.707C121.834,110.707 120.007,108.883 120.007,106.631L120.007,96.803C120.007,94.554 121.831,92.728 124.085,92.728L133.918,92.728C136.169,92.728 137.996,94.551 137.996,96.803L137.996,106.631ZM171.787,106.631C171.787,108.881 169.962,110.707 167.708,110.707L157.876,110.707C155.625,110.707 153.797,108.883 153.797,106.631L153.797,96.803C153.797,94.554 155.622,92.728 157.876,92.728L167.708,92.728C169.96,92.728 171.787,94.551 171.787,96.803L171.787,106.631Z" clip-rule="evenodd" fill-rule="evenodd" transform="rotate(360 129 122)" fill="#5DA457"/>
<path d="M171.787,106.631C171.787,108.881 169.962,110.707 167.708,110.707L157.876,110.707C155.625,110.707 153.797,108.883 153.797,106.631L153.797,96.803C153.797,94.554 155.622,92.728 157.876,92.728L167.708,92.728C169.96,92.728 171.787,94.551 171.787,96.803L171.787,106.631Z" transform="rotate(360 129 122)" fill="#FFFFFF"/>
<path d="M137.996,106.631C137.996,108.881 136.171,110.707 133.918,110.707L124.085,110.707C121.834,110.707 120.007,108.883 120.007,106.631L120.007,96.803C120.007,94.554 121.831,92.728 124.085,92.728L133.918,92.728C136.169,92.728 137.996,94.551 137.996,96.803L137.996,106.631Z" transform="rotate(360 129 122)" fill="#FFFFFF"/>
<path d="M104.205,106.631C104.205,108.881 102.381,110.707 100.127,110.707L90.294,110.707C88.043,110.707 86.216,108.883 86.216,106.631L86.216,96.803C86.216,94.554 88.04,92.728 90.294,92.728L100.127,92.728C102.378,92.728 104.205,94.551 104.205,96.803L104.205,106.631Z" transform="rotate(360 129 122)" fill="#FFFFFF"/>
</svg>
