<svg width="262" height="206" viewBox="0 0 262 206" fill="none" xmlns="http://www.w3.org/2000/svg" xmlns:xlink="http://www.w3.org/1999/xlink">
<path d="M261.097,145.926C262.541,113.606 246.597,85.84 222.527,70.2C218.023,67.267 215.081,62.44 214.487,57.085C214.453,56.795 214.419,56.505 214.385,56.215C209.965,20.722 176.903,-4.213 141.7,0.597C108.026,5.202 83.769,23.059 87.355,57.443C87.355,57.596 87.389,57.835 87.406,58.142C88.035,67.505 80.709,75.385 71.377,75.607C69.422,75.658 67.45,75.777 65.461,75.982C25.294,80.195 -3.859,116.42 0.425,156.876C2.38,175.381 11.083,191.584 23.798,203.283L233.253,203.283C249.181,188.002 260.179,166.785 261.113,145.926L261.097,145.926Z" fill="#D3E5D3"/>
<path d="M254.144,204.113L6.714,204.113C6.323,204.113 6,203.414 6,202.568C6,201.721 6.323,201.022 6.714,201.022L254.144,201.022C254.534,201.022 254.858,201.721 254.858,202.568C254.858,203.414 254.534,204.113 254.144,204.113Z" fill="#5DA457"/>
<path d="M172.838,121.255C172.838,121.255 172.1,122.69 171.761,123.101C170.712,124.372 167.316,128.763 157.72,133.022C156.654,133.495 155.692,134.128 154.708,134.614C146.933,138.444 148.183,139.141 143.411,144.699C143.32,144.806 143.156,145.149 142.932,145.7C142.183,147.526 140.722,151.648 138.724,157.057C136.756,162.387 134.265,168.965 131.417,175.837C130.872,177.149 130.318,178.496 129.753,179.868C113.571,180.454 98.777,180.47 85.969,179.861C89.982,172.988 93.872,166.322 97.448,160.191C101.385,153.437 104.73,147.672 107.463,142.954C112.111,134.925 114.978,129.924 115.953,128.24C117.274,125.954 119.585,119.407 122.188,112.109C125.713,102.217 129.773,90.947 132.616,87.054C133.765,85.481 136.16,83.975 138.983,82.61C141.31,81.485 147.425,83.226 153.676,80.448C157.614,78.697 164.101,87.227 163.237,90.536C163.235,90.546 163.232,90.557 163.229,90.567C162.879,91.914 162.557,93.169 162.28,94.275C161.762,96.337 161.406,97.872 161.325,98.486C161.307,98.619 161.302,98.708 161.313,98.752C161.368,99.009 161.422,99.263 161.477,99.516C161.685,100.493 161.882,101.419 162.065,102.287C162.071,102.318 162.076,102.349 162.084,102.378C162.174,102.81 162.262,103.226 162.344,103.623C162.36,103.696 162.373,103.766 162.389,103.837C162.74,105.513 163.009,106.835 163.171,107.618C163.185,107.68 163.197,107.742 163.206,107.793C163.288,108.198 163.333,108.415 163.333,108.415C163.333,108.415 165.495,107.628 167.515,108.271C168.149,108.47 168.765,108.812 169.297,109.359C169.437,109.502 169.573,109.662 169.703,109.837C169.828,110.006 170.262,110.768 170.834,111.829C170.844,111.85 170.855,111.868 170.866,111.889C172.576,115.075 173.529,120.655 172.839,121.26L172.838,121.255Z" transform="rotate(31.269 129.517 130.263)" fill="#F9BB8D"/>
<path d="M142.45,130.198L142.414,129.864C142.437,129.861 144.775,129.586 147.173,127.129C149.397,124.852 152.129,120.185 152.519,110.878L152.863,110.893C152.646,116.1 151.52,123.188 147.4,127.386C144.915,129.919 142.549,130.19 142.45,130.2L142.45,130.198Z" transform="rotate(40.426 147.638 120.539)" fill="#E87765"/>
<path d="M166.817,128.189C168.85,128.514 170.758,127.12 171.081,125.074L179.902,69.187C180.225,67.142 178.839,65.221 176.806,64.896C174.774,64.571 172.865,65.966 172.542,68.011L163.721,123.898C163.398,125.944 164.784,127.865 166.817,128.189Z" transform="rotate(38.394 171.812 96.543)" fill="#3A3A3A"/>
<path d="M199.537,76.867C217.557,76.867 232.166,62.165 232.166,44.029C232.166,25.893 217.557,11.191 199.537,11.191C181.516,11.191 166.908,25.893 166.908,44.029C166.908,62.165 181.516,76.867 199.537,76.867Z" transform="rotate(38.32 199.537 44.029)" fill="#FF6760"/>
<path d="M199.537,77.848C190.561,77.848 182.122,74.329 175.775,67.942C169.429,61.555 165.933,53.061 165.933,44.028C165.933,34.994 169.429,26.501 175.775,20.114C182.122,13.727 190.561,10.209 199.537,10.209C208.513,10.209 216.952,13.727 223.299,20.115C229.646,26.502 233.142,34.995 233.142,44.029C233.142,53.063 229.646,61.556 223.299,67.943C216.952,74.331 208.513,77.849 199.537,77.849L199.537,77.848ZM199.537,12.172C182.084,12.172 167.884,26.462 167.884,44.028C167.884,61.593 182.084,75.884 199.537,75.884C216.99,75.884 231.19,61.593 231.19,44.028C231.19,26.462 216.99,12.173 199.537,12.173L199.537,12.172Z" transform="rotate(38.32 199.537 44.029)" fill="#3A3A3A"/>
<path d="M220.177,40.425L179.337,40.425L179.337,47.791L220.177,47.791L220.177,40.425Z" transform="rotate(-33.424 199.757 44.108)" fill="#FFFFFF"/>
<path d="M220.234,40.41L179.287,40.41L179.287,47.798L220.234,47.798L220.234,40.41Z" transform="rotate(-212.502 199.76 44.104)" fill="#FFFFFF"/>
<path d="M132.958,118.872C142.487,118.17 161.173,102.489 162.659,96.395C163.659,92.295 171.098,86.712 174.301,84.762C181.207,80.563 184.75,78.877 185.476,74.704C185.884,72.351 184.135,71.433 182.691,71.454C181.363,71.471 179.564,72.291 177.203,73.539C176.723,73.794 167.053,76.657 166.526,76.943C160.593,80.165 146.044,89.452 146.044,89.452C140.44,94.094 132.959,118.87 132.959,118.87L132.958,118.872Z" transform="rotate(31.138 159.247 95.163)" fill="#F9BB8D"/>
<path d="M182.331,80.029C182.428,80.498 182.659,81.051 183.174,81.584C184.452,82.906 188.07,80.433 188.53,80.02C188.848,79.735 188.229,78.61 187.816,77.943C186.488,77.961 184.689,78.78 182.33,80.028L182.331,80.029Z" transform="rotate(31.141 185.474 79.956)" fill="#FFD8BE"/>
<path d="M196.058,113.287L196.487,111.736C197.359,108.705 193.529,105.907 188.075,104.635L174.793,101.555C169.201,100.251 165.932,100.871 164.35,103.716C164.067,104.223 163.844,105.004 163.786,105.6C163.478,108.779 165.402,111.29 170.992,112.594L184.832,115.888C190.285,117.159 195.185,116.317 196.058,113.287Z" transform="rotate(31.146 180.183 108.681)" fill="#F9BB8D"/>
<path d="M188.942,123.457L189.513,121.647C190.529,118.417 187.007,115.436 181.839,114.037L168.187,110.339C162.889,108.904 158.571,109.538 156.962,112.641C156.66,113.226 156.445,113.953 156.361,114.659C155.953,118.081 159.115,120.896 164.414,122.331L178.066,126.029C183.234,127.428 187.926,126.686 188.942,123.457Z" transform="rotate(31.144 173.007 118.156)" fill="#F9BB8D"/>
<path d="M181.402,133.152L181.724,131.702C182.349,128.878 179.768,126.433 176.064,125.497L168.38,123.946C165.385,123.296 161.461,122.983 160.309,126.594C158.918,130.954 163.686,133.583 165.456,133.893L173.743,135.988C177.446,136.923 180.777,135.976 181.402,133.152Z" transform="rotate(31.142 170.938 129.939)" fill="#F9BB8D"/>
<path d="M166.73,102.483C167.32,100.052 169.436,99.808 171.518,100.35L174.145,101.032C175.139,101.29 175.737,102.17 175.473,102.989L174.534,105.907C174.243,106.813 173.102,107.323 172,107.036L169.009,106.259C167.235,105.798 166.465,103.568 166.729,102.483L166.73,102.483Z" transform="rotate(31.138 171.107 103.613)" fill="#FFD8BE"/>
<path d="M197.359,103.648C197.439,103.37 197.883,101.57 197.883,101.57C198.462,98.974 195.175,97.073 190.848,96.323L181.168,94.645C176.732,93.876 173.98,93.423 172.594,95.887C172.228,96.54 171.95,98.01 171.956,98.806C171.982,102.205 175.264,102.992 179.701,103.761L188.7,105.958C193.027,106.708 196.626,106.207 197.359,103.646L197.359,103.648Z" transform="rotate(31.146 184.953 100.155)" fill="#F9BB8D"/>
<path d="M159.315,111.653L159.355,111.422C159.713,109.328 161.477,107.983 163.275,108.432L165.637,109.023C166.494,109.238 167.055,110.23 166.885,111.229L166.293,114.679C166.103,115.787 165.169,116.5 164.219,116.26L161.542,115.591C160.011,115.208 159.009,113.436 159.315,111.653Z" transform="rotate(31.138 163.088 112.326)" fill="#FFD8BE"/>
<path d="M162.404,125.547L162.385,125.613C161.872,127.319 162.721,129.07 164.274,129.504L166.965,130.259C167.707,130.468 168.514,129.972 168.758,129.158L169.567,126.472C169.839,125.57 169.389,124.644 168.567,124.412L165.604,123.581C164.28,123.21 162.841,124.095 162.402,125.547L162.404,125.547Z" transform="rotate(31.138 165.941 126.902)" fill="#FFD8BE"/>
<path d="M173.705,95.623L173.814,95.19C174.192,93.696 175.85,92.733 177.496,93.048L179.374,93.408C180.16,93.559 180.655,94.267 180.475,94.98L179.784,97.708C179.583,98.498 178.707,99.009 177.835,98.841L175.67,98.426C174.266,98.156 173.382,96.895 173.705,95.621L173.705,95.623Z" transform="rotate(31.138 177.075 95.931)" fill="#FFD8BE"/>
<path d="M175.809,102.458L175.431,102.458L175.431,122.785L175.809,122.785L175.809,102.458Z" transform="rotate(-119.762 175.62 112.622)" fill="#E6A154"/>
<path d="M182.284,93.546L181.905,93.546L181.905,113.191L182.284,113.191L182.284,93.546Z" transform="rotate(-123.152 182.094 103.368)" fill="#E6A154"/>
<path d="M174.081,117.865L173.701,117.865L173.701,133.131L174.081,133.131L174.081,117.865Z" transform="rotate(-124.831 173.891 125.498)" fill="#E6A154"/>
<path d="M168.479,133.803C167.327,133.512 162.902,132.224 162.857,132.211L162.961,131.851C163.006,131.863 167.425,133.15 168.571,133.44L168.479,133.803Z" transform="rotate(31.154 165.714 132.827)" fill="#E6A154"/>
<path d="M125.815,168.1C125.815,168.1 119.661,182.173 110.942,200.949L34,200.948C56.806,179.969 100.454,140.693 100.454,140.693C100.454,140.693 130.149,154.007 125.815,168.1Z" fill="#E7A255"/>
<path d="M88.935,156.701C88.935,156.701 100.099,167.484 107.624,171.648L113.322,167.572L113.322,173.585C113.322,173.585 124.528,175.583 128.063,173.585L128.063,157.188L96.588,141.276L88.935,156.702L88.935,156.701Z" transform="rotate(44.774 108.499 157.874)" fill="#E7A255"/>
<path d="M101.212,131.905C101.212,131.905 94.122,142.601 87.076,154.037C87.076,154.037 101.926,164.339 109.976,167.361L120.536,155.164L119.029,169.846C119.029,169.846 128.373,173.281 132.71,172.385C132.71,172.385 132.436,159.066 132.439,150.34C132.439,150.34 106.748,143.078 101.213,131.906L101.212,131.905Z" transform="rotate(44.774 109.893 152.22)" fill="#FFFFFF"/>
<path d="M100.73,156.557C100.739,155.578 101.533,154.792 102.503,154.801C103.474,154.81 104.254,155.611 104.245,156.59C104.235,157.568 103.442,158.355 102.471,158.346C101.501,158.337 100.72,157.536 100.73,156.557Z" transform="rotate(44.774 102.487 156.573)" fill="#E7A255"/>
</svg>
