<svg width="344" height="454" viewBox="0 0 344 454" fill="none" xmlns="http://www.w3.org/2000/svg" xmlns:xlink="http://www.w3.org/1999/xlink">
<path d="M334.111,7.119C379.391,54.01 242.509,137.36 222.075,149.392C212.213,163.448 203.027,177.183 194.457,190.626C216.095,171.889 332.797,74.059 343.155,136.797C353.937,202.265 208.193,194.723 192.461,193.74C176.774,218.531 163.237,242.173 151.581,264.385C175.793,248.665 317.303,160.25 323.609,238.515C328.135,294.675 170.235,270.367 150.14,267.067C140.371,285.821 131.959,303.507 124.677,319.989C148.904,310.939 273.315,266.823 265.195,319.481C256.919,373.193 142.769,330.987 123.427,322.835C113.181,346.297 105.299,367.187 99.314,385.017C110.478,380.017 210.353,336.543 206.953,384.501C203.503,433.185 108.236,390.701 99.032,385.921C85.076,427.651 81.354,452.383 81.252,453.051L78.349,452.653C78.433,452.009 81.968,428.421 95.1,388.445C82.46,382.113 -24.452,327.251 6.568,295.767C34.83,267.075 88.196,372.465 95.497,387.295C100.611,371.817 107.18,353.931 115.52,333.953C98.415,321.789 -23.202,232.975 38.78,207.305C76.316,191.747 111.16,306.699 116.769,330.937C118.056,327.895 119.437,324.757 120.796,321.621C120.752,321.605 120.64,321.557 120.637,321.537C120.637,321.537 120.798,321.473 120.878,321.441C127.283,306.785 134.615,291.163 142.993,274.663C126.55,258.719 17.974,150.825 69.887,131.087C114.139,114.262 139.656,245.563 144.317,272.059C151.917,257.183 160.419,241.617 169.815,225.469C155.897,205.791 61.271,60.75 128.061,72.113C172.385,79.645 173.724,193.048 172.227,221.349C181.331,205.873 191.294,189.861 202.189,173.409C194.96,151.601 150.1,10.375 203.459,14.538C251.333,18.265 216.965,134.357 206.139,167.502C211.169,160.018 216.355,152.449 221.783,144.785C233.923,112.48 292.681,-35.741 334.161,7.175L334.111,7.119Z" fill="#3A3A3A"/>
</svg>
