<svg width="510" height="676" viewBox="0 0 510 676" fill="none" xmlns="http://www.w3.org/2000/svg" xmlns:xlink="http://www.w3.org/1999/xlink">
<path d="M13.387,10.567C-54.08,80.436 149.877,204.63 180.323,222.558C195.018,243.502 208.706,263.968 221.478,283.996C189.235,256.078 15.344,110.31 -0.088,203.79C-16.152,301.342 201.006,290.102 224.452,288.638C247.824,325.578 267.994,360.806 285.364,393.902C249.286,370.48 38.431,238.736 29.035,355.354C22.291,439.034 257.568,402.816 287.51,397.898C302.066,425.84 314.6,452.194 325.45,476.752C289.352,463.268 103.975,397.534 116.074,475.994C128.407,556.028 298.494,493.138 327.312,480.994C342.58,515.952 354.324,547.078 363.242,573.646C346.608,566.194 197.79,501.418 202.854,572.878C207.996,645.418 349.948,582.116 363.662,574.992C384.456,637.17 390.002,674.022 390.154,675.018L394.48,674.424C394.356,673.464 389.088,638.318 369.52,578.754C388.354,569.318 547.656,487.574 501.436,440.662C459.324,397.91 379.808,554.944 368.93,577.04C361.31,553.978 351.522,527.326 339.094,497.558C364.582,479.436 545.792,347.1 453.438,308.85C397.508,285.668 345.592,456.948 337.234,493.064C335.316,488.532 333.258,483.856 331.232,479.184C331.298,479.16 331.466,479.088 331.47,479.058C331.47,479.058 331.23,478.964 331.112,478.916C321.568,457.078 310.642,433.8 298.158,409.216C322.66,385.458 484.44,224.694 407.088,195.283C341.152,170.213 303.132,365.856 296.186,405.336C284.862,383.17 272.194,359.976 258.194,335.914C278.932,306.594 419.926,90.479 320.408,107.411C254.366,118.634 252.368,287.606 254.6,329.776C241.034,306.716 226.19,282.858 209.954,258.342C220.726,225.85 287.57,15.419 208.062,21.622C136.728,27.175 187.939,200.156 204.068,249.542C196.575,238.39 188.846,227.112 180.758,215.694C162.671,167.558 75.12,-53.295 13.313,10.652L13.387,10.567Z" fill="#3A3A3A"/>
</svg>
