<svg width="338" height="266" viewBox="0 0 338 266" fill="none" xmlns="http://www.w3.org/2000/svg" xmlns:xlink="http://www.w3.org/1999/xlink">
<path d="M336.889,188.846C338.759,147.02 318.125,111.087 286.977,90.847C281.147,87.051 277.341,80.805 276.571,73.874C276.527,73.499 276.483,73.124 276.439,72.748C270.719,26.817 227.933,-5.452 182.376,0.772C138.797,6.732 107.406,29.841 112.048,74.338C112.048,74.536 112.092,74.845 112.114,75.243C112.928,87.36 103.447,97.557 91.37,97.844C88.84,97.91 86.288,98.065 83.714,98.33C31.733,103.781 -5.994,150.662 -0.45,203.016C2.079,226.964 13.342,247.932 29.797,263.072L300.857,263.072C321.469,243.296 335.701,215.84 336.911,188.846L336.889,188.846Z" fill="#D3E5D3"/>
<path d="M335.284,264.146L15.08,264.146C14.574,264.146 14.156,263.242 14.156,262.147C14.156,261.051 14.574,260.146 15.08,260.146L335.284,260.146C335.79,260.146 336.208,261.051 336.208,262.147C336.208,263.242 335.79,264.146 335.284,264.146Z" fill="#5DA457"/>
<path d="M246.159,237.654C245.61,238.576 245.109,239.695 244.478,240.843C243.936,242.048 243.294,243.302 242.72,244.693C242.095,246.048 241.572,247.541 240.967,249.049C240.346,250.552 239.932,252.197 239.333,253.787C238.901,255.444 238.325,257.078 237.917,258.769C237.671,259.855 237.371,260.927 237.105,262L267,262C262.633,245.087 248.741,206.284 211.992,198.393L181.764,218.703L180.999,218.173L180.999,218.786L182.756,218.644L195.095,220.98L191.963,227.095L184.707,241.537L186.565,262L232.517,262C232.781,260.528 233.191,259.063 233.508,257.583C233.969,255.796 234.591,254.052 235.157,252.329C235.847,250.644 236.519,248.98 237.295,247.436C238.043,245.873 238.863,244.412 239.726,243.079C240.514,241.705 241.47,240.529 242.282,239.422C244.008,237.262 245.653,235.65 246.885,234.628C248.133,233.61 248.921,233.154 248.921,233.154C248.921,233.154 248.388,233.901 247.565,235.228C247.162,235.901 246.679,236.713 246.156,237.656L246.159,237.654Z" fill="#5DA457"/>
<path d="M153.363,199.03C153.363,199.03 104.495,205.89 95,262L125.296,262C125.286,261.936 125.269,261.87 125.258,261.804C124.946,260.115 124.429,258.454 124.042,256.761C123.637,255.07 123.061,253.436 122.627,251.779C122.03,250.188 121.613,248.542 120.991,247.042C120.387,245.532 119.864,244.039 119.24,242.683C118.664,241.294 118.022,240.037 117.482,238.832C116.851,237.686 116.347,236.568 115.801,235.644C115.278,234.702 114.798,233.893 114.392,233.218C113.57,231.889 113.034,231.146 113.034,231.146C113.034,231.146 113.823,231.601 115.072,232.617C116.303,233.64 117.95,235.252 119.675,237.414C120.489,238.519 121.443,239.697 122.232,241.07C123.097,242.406 123.915,243.863 124.663,245.428C125.441,246.974 126.112,248.635 126.803,250.322C127.368,252.047 127.993,253.79 128.452,255.576C128.837,257.376 129.372,259.152 129.598,260.952C129.651,261.304 129.702,261.655 129.755,262.004L176.173,262.004L178.124,241.541L170.87,227.099L171.965,223.355L179.029,218.952L180.999,218.793L180.999,218.179L153.363,199.037L153.363,199.03Z" fill="#5DA457"/>
<path d="M128.454,255.572C127.995,253.785 127.37,252.041 126.805,250.318C126.117,248.631 125.445,246.97 124.665,245.424C123.917,243.858 123.097,242.402 122.234,241.066C121.448,239.692 120.491,238.515 119.677,237.409C117.952,235.248 116.307,233.635 115.074,232.613C113.825,231.597 113.036,231.141 113.036,231.141C113.036,231.141 113.572,231.885 114.394,233.214C114.798,233.889 115.28,234.698 115.803,235.639C116.349,236.564 116.855,237.682 117.484,238.828C118.024,240.033 118.666,241.29 119.242,242.678C119.867,244.035 120.389,245.53 120.993,247.038C121.616,248.538 122.03,250.184 122.629,251.775C123.063,253.432 123.639,255.065 124.045,256.756C124.431,258.45 124.948,260.111 125.26,261.8C125.269,261.866 125.286,261.932 125.298,261.996L129.759,261.996C129.706,261.646 129.655,261.295 129.602,260.944C129.377,259.146 128.841,257.368 128.456,255.568L128.454,255.572Z" fill="#31632C"/>
<path d="M239.333,253.79C239.932,252.199 240.346,250.552 240.967,249.051C241.572,247.543 242.095,246.05 242.72,244.695C243.294,243.305 243.936,242.05 244.478,240.845C245.109,239.697 245.61,238.579 246.159,237.656C246.681,236.713 247.164,235.904 247.568,235.228C248.39,233.901 248.923,233.154 248.923,233.154C248.923,233.154 248.135,233.61 246.887,234.628C245.655,235.65 244.01,237.262 242.284,239.422C241.473,240.529 240.516,241.705 239.728,243.079C238.865,244.412 238.045,245.873 237.297,247.436C236.519,248.981 235.849,250.644 235.159,252.329C234.593,254.052 233.971,255.796 233.51,257.583C233.193,259.063 232.785,260.528 232.519,262L237.107,262C237.373,260.927 237.673,259.855 237.919,258.769C238.327,257.078 238.901,255.445 239.335,253.788L239.333,253.79Z" fill="#31632C"/>
<path d="M202.484,167.931L159.662,167.931L159.662,218.705L202.484,218.705L202.484,167.931Z" fill="#FBC584"/>
<path d="M159.599,194.617L203.745,169.835L159.588,159.682L159.599,194.617Z" fill="#D7A36B"/>
<path d="M191.963,227.095L195.095,220.98L182.759,218.644Z" fill="#D3E5D3"/>
<path d="M179.031,218.948L171.967,223.35L170.873,227.095L172.575,224.143L179.031,218.948Z" fill="#D3E5D3"/>
<path d="M126.763,105.566C126.763,143.707 150.539,174.702 180.115,175.554L180.115,49.337C151.053,50.285 126.763,67.958 126.763,105.564L126.763,105.566Z" fill="#EEB97B"/>
<path d="M182.599,49.292C181.768,49.292 180.942,49.311 180.117,49.337L180.117,175.551C180.531,175.562 180.946,175.592 181.36,175.592C211.516,175.592 235.956,144.239 235.956,105.564C235.956,66.889 212.753,49.292 182.599,49.292Z" fill="#FBC584"/>
<path d="M230.451,109.96C229.278,118.034 231.535,125.051 235.488,125.633C239.443,126.216 243.6,120.147 244.773,112.072C245.946,104.003 243.687,96.983 239.734,96.399C235.781,95.816 231.625,101.886 230.449,109.96L230.451,109.96Z" fill="#FBC584"/>
<path d="M153.869,42.624C151.06,43.648 147.12,44.004 143.989,44.11C141.122,44.208 138.931,44.096 138.931,44.096C139.048,44.573 139.512,45.68 139.958,46.696C140.432,47.778 140.889,48.758 140.889,48.758C140.34,48.813 139.337,48.538 138.13,48.091C133.948,46.553 127.175,42.869 127.175,42.869C126.442,48.515 127.789,53.548 129.321,57.166C130.849,60.785 132.564,62.991 132.564,62.991C131.34,63.236 127.912,61.764 127.912,61.764C128.892,66.426 129.872,68.637 129.872,68.637C122.508,74.026 120.797,89.582 120.661,101.749L133.298,116.526L137.656,105.922C137.75,105.932 137.839,105.936 137.933,105.949C141.018,94.785 143.581,77.961 143.581,77.961C156.995,86.591 169.972,88.9 180.999,88.385L180.999,38.454C167.343,39.476 155.79,41.923 153.869,42.624Z" fill="#794014"/>
<path d="M239.594,95.255C238.289,77.957 231.25,65.447 231.25,65.447C235.96,44.404 216.33,38.541 195.635,38.036C190.713,37.917 185.732,38.1 181.001,38.454L181.001,88.387C197.057,87.637 208.975,80.901 212.081,78.971C213.08,77.878 213.601,77.222 213.601,77.222C215.471,98.433 229.784,112.779 229.784,112.779C228.583,103.77 238.897,96.708 239.664,96.195C239.694,96.176 239.736,96.146 239.736,96.146C239.694,95.839 239.641,95.554 239.594,95.253L239.594,95.255Z" fill="#84471C"/>
<path d="M127.188,96.527C127.188,96.527 136.19,51.073 179.469,51.073C222.748,51.073 234.175,90.63 234.175,90.63L227.595,91.324C227.595,91.324 216.861,61.481 180.678,61.481C144.495,61.481 131.687,96.527 131.687,96.527L127.186,96.527L127.188,96.527Z" fill="#31632C"/>
<path d="M229.327,94.099C229.327,94.099 233.484,129.492 232.443,131.92C232.443,131.92 246.292,134.001 246.641,122.898L246.641,103.815C246.641,103.815 246.082,97.117 237.985,94.099L230.713,94.099Z" fill="#31632C"/>
<path d="M191.089,152.206C191.089,152.206 221.711,149.802 234.177,135.174C234.177,135.174 237.277,132.97 239.479,137.379C241.679,141.79 208.885,156.615 191.089,157.418C191.089,157.418 190.29,160.626 181.494,160.826C172.696,161.026 170.696,158.021 170.696,158.021C170.696,158.021 166.497,153.21 171.495,149.804C176.494,146.396 180.682,147.73 180.682,147.73C180.682,147.73 189.293,148.2 191.089,152.209L191.089,152.206Z" fill="#31632C"/>
<path d="M130.465,109.302C131.232,117.269 128.909,124.016 125.281,124.37C121.656,124.726 118.092,118.554 117.327,110.586C116.562,102.616 118.883,95.869 122.51,95.513C126.14,95.162 129.702,101.334 130.467,109.302L130.465,109.302Z" fill="#EEB97B"/>
<path d="M179.031,218.948L172.575,224.143L170.873,227.095L178.126,241.537L176.175,262L181.001,262L181.001,218.786L179.031,218.948Z" fill="#F99746"/>
<path d="M184.707,241.537L191.963,227.095L191.21,223.014L182.759,218.644L181.001,218.786L181.001,262L186.567,262L184.707,241.537Z" fill="#F99746"/>
<path d="M155.886,192.681L181.766,218.705L165.462,231.842L150.845,198.393L155.886,192.681Z" fill="#31632C"/>
<path d="M206.951,192.681L181.766,218.705L198.608,232.362L211.995,198.393L206.951,192.681Z" fill="#31632C"/>
</svg>
