<?xml version="1.0" encoding="UTF-8" standalone="no" ?>
<!DOCTYPE svg PUBLIC "-//W3C//DTD SVG 1.1//EN" "http://www.w3.org/Graphics/SVG/1.1/DTD/svg11.dtd">
<svg xmlns="http://www.w3.org/2000/svg" xmlns:xlink="http://www.w3.org/1999/xlink" version="1.1" width="1080" height="1080" viewBox="0 0 1080 1080" xml:space="preserve">
<desc>Created with Fabric.js 5.2.4</desc>
<defs>
</defs>
<g transform="matrix(1 0 0 1 540 540)" id="fb314517-1159-4183-9156-9430358ad80f"  >
<rect style="stroke: none; stroke-width: 1; stroke-dasharray: none; stroke-linecap: butt; stroke-dashoffset: 0; stroke-linejoin: miter; stroke-miterlimit: 4; fill: rgb(255,255,255); fill-rule: nonzero; opacity: 1; visibility: hidden;" vector-effect="non-scaling-stroke"  x="-540" y="-540" rx="0" ry="0" width="1080" height="1080" />
</g>
<g transform="matrix(1 0 0 1 540 540)" id="f68f4231-baa5-40d8-84ae-e14e261fb61b"  >
</g>
<g transform="matrix(3.1 0 0 3.1 389.55 420.48)"  >
<path style="stroke: none; stroke-width: 1; stroke-dasharray: none; stroke-linecap: butt; stroke-dashoffset: 0; stroke-linejoin: miter; stroke-miterlimit: 4; fill: rgb(203,26,28); fill-rule: nonzero; opacity: 1;" vector-effect="non-scaling-stroke"  transform=" translate(-158.98, -160.24)" d="M 182.078 303 C 182.078 303 -36.922 343 47.265 151.411 C 57.186 103.655 84.274 68.888 112.563 74.411 C 132.381 78.27 153.059 104.032 168.381 57.875 C 170.535 51.409 173.066 45.7 175.907 40.71 C 180.633 32.426 186.234 26.119 192.345 21.727 C 192.399 21.696 192.465 21.663 192.534 21.601 C 193.005 21.256 193.489 20.943 193.987 20.628 C 194.055 20.566 194.122 20.533 194.202 20.471 C 194.768 20.095 195.346 19.749 195.924 19.405 C 195.979 19.374 196.033 19.341 196.087 19.341 C 197.217 18.683 198.361 18.086 199.52 17.584 L 199.52 17.553 C 199.588 17.522 199.64 17.489 199.709 17.489 C 200.773 16.987 201.849 16.548 202.939 16.172 C 203.734 15.89 204.541 15.638 205.348 15.418 C 207.542 14.821 209.764 14.414 212.013 14.194 C 214.773 13.912 217.574 13.942 220.386 14.255 C 220.455 14.255 220.521 14.255 220.589 14.286 C 221.236 14.35 221.868 14.443 222.514 14.537 C 222.583 14.568 222.649 14.568 222.717 14.568 C 238.104 17.205 253.506 28.437 265.206 47.169 C 265.262 47.231 265.328 47.326 265.382 47.42 C 266.85 49.773 268.262 52.284 269.61 54.888 C 269.69 55.044 269.77 55.201 269.852 55.326 C 279.358 73.964 285.456 98.439 285.456 127.998 C 285.456 132.862 285.296 137.882 284.946 143.028 C 284.918 143.466 284.89 143.907 284.85 144.314 C 284.742 145.947 284.608 147.579 284.448 149.209 C 284.11 152.85 283.882 156.677 283.168 160.349 C 268.344 236.126 349.078 272 182.078 303 Z" stroke-linecap="round" />
</g>
<g transform="matrix(-3.1 0 0 -3.1 479.74 636.83)"  >
<path style="stroke: none; stroke-width: 1; stroke-dasharray: none; stroke-linecap: butt; stroke-dashoffset: 0; stroke-linejoin: miter; stroke-miterlimit: 4; fill: rgb(249,187,141); fill-rule: nonzero; opacity: 1;" vector-effect="non-scaling-stroke"  transform=" translate(-193.63, -128.94)" d="M 230.597 147 C 230.597 147 230.497 147.16 230.297 147.46 C 229.657 148.42 228.057 150.82 225.697 154.12 C 212.517 172.64 176.077 219.7 157.497 201.94 C 157.217 201.68 156.937 201.4 156.657 201.1 C 156.657 201.1 156.917 200.48 157.377 199.34 C 159.897 193.1 168.637 171.46 175.237 155.04 C 179.457 144.56 182.777 136.18 183.077 135.26 C 196.557 93.02 195.977 54.96 195.377 52.86 C 195.377 52.86 213.217 48.52 220.977 59.44 C 224.657 64.64 226.317 71.52 226.737 78.24 C 226.977 81.84 226.877 85.4 226.557 88.6 L 226.557 88.64 C 226.217 92 225.637 94.98 224.957 97.24 C 223.257 103.02 220.277 130.22 226.177 142.12 C 227.297 144.4 228.757 146.1 230.597 147 Z" stroke-linecap="round" />
</g>
<g transform="matrix(-3.1 0 0 -3.1 353.12 398.97)"  >
<path style="stroke: none; stroke-width: 1; stroke-dasharray: none; stroke-linecap: butt; stroke-dashoffset: 0; stroke-linejoin: miter; stroke-miterlimit: 4; fill: rgb(249,187,141); fill-rule: nonzero; opacity: 1;" vector-effect="non-scaling-stroke"  transform=" translate(-234.47, -205.67)" d="M 310.197 162.28 C 300.177 171.58 296.697 262.86 294.237 263.58 C 291.757 264.28 198.597 264.3 187.417 259.72 C 176.237 255.14 159.497 248.36 159.497 248.36 L 157.717 207.34 L 157.497 201.94 L 157.377 199.34 L 156.657 182.7 L 175.237 155.04 L 175.937 154 L 216.777 147.56 C 217.057 147.56 217.437 147.52 217.897 147.5 C 219.597 147.44 222.457 147.42 226.037 147.42 C 227.357 147.44 228.797 147.44 230.297 147.46 C 248.177 147.64 276.997 148.42 279.417 148.66 C 282.937 149.02 321.577 151.7 310.197 162.28 Z" stroke-linecap="round" />
</g>
<g transform="matrix(-3.1 0 0 -3.1 222.07 514.66)"  >
<path style="stroke: none; stroke-width: 1; stroke-dasharray: none; stroke-linecap: butt; stroke-dashoffset: 0; stroke-linejoin: miter; stroke-miterlimit: 4; fill: rgb(249,187,141); fill-rule: nonzero; opacity: 1;" vector-effect="non-scaling-stroke"  transform=" translate(-276.75, -168.35)" d="M 316.697 169.76 C 316.697 177.54 310.937 183.84 303.837 183.84 L 249.657 183.84 C 242.557 183.84 236.797 177.54 236.797 169.76 L 236.797 166.94 C 236.797 159.16 242.557 152.86 249.657 152.86 L 303.837 152.86 C 310.937 152.86 316.697 159.16 316.697 166.94 L 316.697 169.76 Z" stroke-linecap="round" />
</g>
<g transform="matrix(-3.1 0 0 -3.1 235.5 418.63)"  >
<path style="stroke: none; stroke-width: 1; stroke-dasharray: none; stroke-linecap: butt; stroke-dashoffset: 0; stroke-linejoin: miter; stroke-miterlimit: 4; fill: rgb(249,187,141); fill-rule: nonzero; opacity: 1;" vector-effect="non-scaling-stroke"  transform=" translate(-272.42, -199.33)" d="M 319.597 200.74 C 319.597 208.52 313.837 214.82 306.737 214.82 L 238.097 214.82 C 230.997 214.82 225.237 208.52 225.237 200.74 L 225.237 197.92 C 225.237 190.14 230.997 183.84 238.097 183.84 L 306.737 183.84 C 313.837 183.84 319.597 190.14 319.597 197.92 L 319.597 200.74 Z" stroke-linecap="round" />
</g>
<g transform="matrix(-3.1 0 0 -3.1 230.85 330.46)"  >
<path style="stroke: none; stroke-width: 1; stroke-dasharray: none; stroke-linecap: butt; stroke-dashoffset: 0; stroke-linejoin: miter; stroke-miterlimit: 4; fill: rgb(249,187,141); fill-rule: nonzero; opacity: 1;" vector-effect="non-scaling-stroke"  transform=" translate(-273.92, -227.77)" d="M 313.257 228.94 C 313.257 235.42 308.457 240.68 302.537 240.68 L 245.297 240.68 C 239.377 240.68 234.577 235.42 234.577 228.94 L 234.577 226.6 C 234.577 220.12 239.377 214.86 245.297 214.86 L 302.537 214.86 C 308.457 214.86 313.257 220.12 313.257 226.6 L 313.257 228.94 Z" stroke-linecap="round" />
</g>
<g transform="matrix(-3.1 0 0 -3.1 227.13 254.98)"  >
<path style="stroke: none; stroke-width: 1; stroke-dasharray: none; stroke-linecap: butt; stroke-dashoffset: 0; stroke-linejoin: miter; stroke-miterlimit: 4; fill: rgb(249,187,141); fill-rule: nonzero; opacity: 1;" vector-effect="non-scaling-stroke"  transform=" translate(-275.12, -252.12)" d="M 309.957 253.16 C 309.957 258.9 305.697 263.56 300.457 263.56 L 249.777 263.56 C 244.537 263.56 240.277 258.9 240.277 253.16 L 240.277 251.08 C 240.277 245.34 244.537 240.68 249.777 240.68 L 300.457 240.68 C 305.697 240.68 309.957 245.34 309.957 251.08 L 309.957 253.16 Z" stroke-linecap="round" />
</g>
<g transform="matrix(-3.1 0 0 -3.1 636.7 375.07)"  >
<path style="stroke: none; stroke-width: 1; stroke-dasharray: none; stroke-linecap: butt; stroke-dashoffset: 0; stroke-linejoin: miter; stroke-miterlimit: 4; fill: rgb(249,187,141); fill-rule: nonzero; opacity: 1;" vector-effect="non-scaling-stroke"  transform=" translate(-143, -213.38)" d="M 182.417 172.1 L 103.577 172.1 L 103.577 254.66 L 182.417 254.66 L 182.417 172.1 Z" stroke-linecap="round" />
</g>
<g transform="matrix(-3.1 0 0 -3.1 683.17 365.58)"  >
<path style="stroke: none; stroke-width: 1; stroke-dasharray: none; stroke-linecap: butt; stroke-dashoffset: 0; stroke-linejoin: miter; stroke-miterlimit: 4; fill: rgb(93,164,87); fill-rule: nonzero; opacity: 1;" vector-effect="non-scaling-stroke"  transform=" translate(-128.01, -216.44)" d="M 154.937 162.58 L 101.077 162.58 L 101.077 270.3 L 154.937 270.3 L 154.937 162.58 Z" stroke-linecap="round" />
</g>
<g transform="matrix(-3.1 0 0 -3.1 465.48 830.59)"  >
<path style="stroke: none; stroke-width: 1; stroke-dasharray: none; stroke-linecap: butt; stroke-dashoffset: 0; stroke-linejoin: miter; stroke-miterlimit: 4; fill: rgb(250,199,160); fill-rule: nonzero; opacity: 1;" vector-effect="non-scaling-stroke"  transform=" translate(-198.23, -66.44)" d="M 194.397 80.08 C 194.397 80.08 201.077 79.98 201.697 75.62 C 202.317 71.24 202.357 54.82 200.077 53.62 C 197.797 52.42 195.377 52.86 195.377 52.86 L 194.397 80.1 L 194.397 80.08 Z" stroke-linecap="round" />
</g>
<g transform="matrix(-3.1 0 0 -3.1 682.95 450.65)"  >
<circle style="stroke: none; stroke-width: 1; stroke-dasharray: none; stroke-linecap: butt; stroke-dashoffset: 0; stroke-linejoin: miter; stroke-miterlimit: 4; fill: rgb(49,99,44); fill-rule: nonzero; opacity: 1;" vector-effect="non-scaling-stroke"  cx="0" cy="0" r="11" />
</g>
</svg>