<svg width="348" height="320" viewBox="0 0 348 320" fill="none" xmlns="http://www.w3.org/2000/svg" xmlns:xlink="http://www.w3.org/1999/xlink">
<path d="M182.078,303C182.078,303 -36.922,343 47.265,151.411C57.186,103.655 84.274,68.888 112.563,74.411C132.381,78.27 153.059,104.032 168.381,57.875C170.535,51.409 173.066,45.7 175.907,40.71C180.633,32.426 186.234,26.119 192.345,21.727C192.399,21.696 192.465,21.663 192.534,21.601C193.005,21.256 193.489,20.943 193.987,20.628C194.055,20.566 194.122,20.533 194.202,20.471C194.768,20.095 195.346,19.749 195.924,19.405C195.979,19.374 196.033,19.341 196.087,19.341C197.217,18.683 198.361,18.086 199.52,17.584L199.52,17.553C199.588,17.522 199.64,17.489 199.709,17.489C200.773,16.987 201.849,16.548 202.939,16.172C203.734,15.89 204.541,15.638 205.348,15.418C207.542,14.821 209.764,14.414 212.013,14.194C214.773,13.912 217.574,13.942 220.386,14.255C220.455,14.255 220.521,14.255 220.589,14.286C221.236,14.35 221.868,14.443 222.514,14.537C222.583,14.568 222.649,14.568 222.717,14.568C238.104,17.205 253.506,28.437 265.206,47.169C265.262,47.231 265.328,47.326 265.382,47.42C266.85,49.773 268.262,52.284 269.61,54.888C269.69,55.044 269.77,55.201 269.852,55.326C279.358,73.964 285.456,98.439 285.456,127.998C285.456,132.862 285.296,137.882 284.946,143.028C284.918,143.466 284.89,143.907 284.85,144.314C284.742,145.947 284.608,147.579 284.448,149.209C284.11,152.85 283.882,156.677 283.168,160.349C268.344,236.126 349.078,272 182.078,303Z" fill="#D3E5D3"/>
<path d="M230.597,147C230.597,147 230.497,147.16 230.297,147.46C229.657,148.42 228.057,150.82 225.697,154.12C212.517,172.64 176.077,219.7 157.497,201.94C157.217,201.68 156.937,201.4 156.657,201.1C156.657,201.1 156.917,200.48 157.377,199.34C159.897,193.1 168.637,171.46 175.237,155.04C179.457,144.56 182.777,136.18 183.077,135.26C196.557,93.02 195.977,54.96 195.377,52.86C195.377,52.86 213.217,48.52 220.977,59.44C224.657,64.64 226.317,71.52 226.737,78.24C226.977,81.84 226.877,85.4 226.557,88.6L226.557,88.64C226.217,92 225.637,94.98 224.957,97.24C223.257,103.02 220.277,130.22 226.177,142.12C227.297,144.4 228.757,146.1 230.597,147Z" fill="#F9BB8D"/>
<path d="M310.197,162.28C300.177,171.58 296.697,262.86 294.237,263.58C291.757,264.28 198.597,264.3 187.417,259.72C176.237,255.14 159.497,248.36 159.497,248.36L157.717,207.34L157.497,201.94L157.377,199.34L156.657,182.7L175.237,155.04L175.937,154L216.777,147.56C217.057,147.56 217.437,147.52 217.897,147.5C219.597,147.44 222.457,147.42 226.037,147.42C227.357,147.44 228.797,147.44 230.297,147.46C248.177,147.64 276.997,148.42 279.417,148.66C282.937,149.02 321.577,151.7 310.197,162.28Z" fill="#F9BB8D"/>
<path d="M316.697,169.76C316.697,177.54 310.937,183.84 303.837,183.84L249.657,183.84C242.557,183.84 236.797,177.54 236.797,169.76L236.797,166.94C236.797,159.16 242.557,152.86 249.657,152.86L303.837,152.86C310.937,152.86 316.697,159.16 316.697,166.94L316.697,169.76Z" fill="#F9BB8D"/>
<path d="M319.597,200.74C319.597,208.52 313.837,214.82 306.737,214.82L238.097,214.82C230.997,214.82 225.237,208.52 225.237,200.74L225.237,197.92C225.237,190.14 230.997,183.84 238.097,183.84L306.737,183.84C313.837,183.84 319.597,190.14 319.597,197.92L319.597,200.74Z" fill="#F9BB8D"/>
<path d="M313.257,228.94C313.257,235.42 308.457,240.68 302.537,240.68L245.297,240.68C239.377,240.68 234.577,235.42 234.577,228.94L234.577,226.6C234.577,220.12 239.377,214.86 245.297,214.86L302.537,214.86C308.457,214.86 313.257,220.12 313.257,226.6L313.257,228.94Z" fill="#F9BB8D"/>
<path d="M309.957,253.16C309.957,258.9 305.697,263.56 300.457,263.56L249.777,263.56C244.537,263.56 240.277,258.9 240.277,253.16L240.277,251.08C240.277,245.34 244.537,240.68 249.777,240.68L300.457,240.68C305.697,240.68 309.957,245.34 309.957,251.08L309.957,253.16Z" fill="#F9BB8D"/>
<path d="M182.417,172.1L103.577,172.1L103.577,254.66L182.417,254.66L182.417,172.1Z" fill="#F9BB8D"/>
<path d="M154.937,162.58L101.077,162.58L101.077,270.3L154.937,270.3L154.937,162.58Z" fill="#5DA457"/>
<path d="M194.397,80.08C194.397,80.08 201.077,79.98 201.697,75.62C202.317,71.24 202.357,54.82 200.077,53.62C197.797,52.42 195.377,52.86 195.377,52.86L194.397,80.1L194.397,80.08Z" fill="#FAC7A0"/>
<circle cx="128.077" cy="189" r="11" fill="#31632C"/>
</svg>
