<svg width="752" height="218" viewBox="0 0 752 218" fill="none" xmlns="http://www.w3.org/2000/svg" xmlns:xlink="http://www.w3.org/1999/xlink">
<path d="M702.874,113.37C515.342,148.028 444.282,56.802 265.563,128.026C252.06,133.406 238.91,138.317 226,142.804C295.959,176.826 373.39,213.303 492.7,217.745C601.418,221.797 667.266,176.469 752,156.824L752,107.901C735.192,108.671 718.778,110.446 702.874,113.382L702.874,113.37Z" fill="#D3E5D3"/>
<path d="M0,83.303L0,179.419C78.667,182.724 151.695,172.101 236,143.221C162.107,107.776 96.376,74.995 0,83.303Z" fill="#DCEBDC"/>
<path d="M703.208,116.002C718.99,113.084 735.306,111.331 752,110.555L752,0L0,0L0,86.125C93.753,77.926 157.695,110.277 229.578,145.258C242.4,140.809 255.46,135.927 268.872,130.569C446.374,59.776 516.952,150.45 703.208,116.002Z" fill="#A3C8A3"/>
</svg>
